# xmcd
#
# Track frame offsets: 
#        150
#        21584
#        52160
#        93292
#        116366
#        153346
#        189742
#        221302
#
# Disc length: 3175 seconds
#
# Revision: 2
# Processed by: cddbd v1.5.2PL0 Copyright (c) Steve Scherf et al.
# Submitted via: ExactAudioCopyFreeDBPlugin 1.0
#
DISCID=690c6508
DTITLE=Otis Clay - Live! [Disc 1] (K2HD Mastering)
DYEAR=1978
DGENRE=R&B/Soul
TTITLE0=Rehearsal: I Die A Little Each Day [Live]
TTITLE1=I've Got To Find A Way (To Get You Back) [Live]
TTITLE2=I'm Qualified [Live]
TTITLE3=Let Me In [Live]
TTITLE4=Precious Precious [Live]
TTITLE5=If I Could Reach Out (And Help Somebody) [Live]
TTITLE6=I Can't Take It [Live]
TTITLE7=Slow And Easy [Live]
EXTD=Powerd by gracenote music web API
EXTT0=
EXTT1=
EXTT2=
EXTT3=
EXTT4=
EXTT5=
EXTT6=
EXTT7=
PLAYORDER=
